<svg width="96" height="34" viewBox="0 0 96 34" fill="none" xmlns="http://www.w3.org/2000/svg">
<path d="M8.90585 0.799377L19.5366 11.3043C14.3731 16.0187 17.3851 21.0405 19.5366 22.9621L8.90585 33.3389L3.8436 27.9584L11.5635 21.0405H0.679688V13.6102H11.5635L3.8436 5.41128L8.90585 0.799377Z" fill="#3EDB84"/>
<path d="M95.7475 22.7713H92.9729L90.828 19.8948L88.6491 22.7713H85.9766L89.4832 18.0862L86.2149 13.694H89.0066L91.0153 16.3982L93.0069 13.694H95.6794L92.36 18.2068L95.7475 22.7713Z" fill="#F2F8F5"/>
<path d="M84.0106 12.3677C83.0913 12.3677 82.3594 11.6959 82.3594 10.7486C82.3594 9.81843 83.0913 9.12946 84.0106 9.12946C84.9298 9.12946 85.6447 9.81843 85.6447 10.7486C85.6447 11.6959 84.9298 12.3677 84.0106 12.3677ZM82.7339 22.7712V13.6939H85.2532V22.7712H82.7339Z" fill="#F2F8F5"/>
<path d="M80.051 22.7712C77.821 22.7712 76.6805 21.4277 76.6805 19.378V15.8642H75.1484V13.6939H75.9145C76.5273 13.6939 76.8337 13.3666 76.8337 12.7121V11.2997H79.2849V13.6939H81.4638V15.8642H79.1998V19.0679C79.1998 20.0325 79.6935 20.5492 80.5787 20.5492H81.5319V22.7712H80.051Z" fill="#F2F8F5"/>
<path d="M67.937 19.0164C68.2264 20.2049 69.1456 20.8766 70.3372 20.8766C71.4437 20.8766 72.0054 20.4805 72.397 19.757L74.3205 21.0489C73.6226 22.0823 72.465 22.9952 70.2691 22.9952C67.3583 22.9952 65.4688 20.9455 65.4688 18.2413C65.4688 15.6059 67.5285 13.4873 70.0989 13.4873C72.9927 13.4873 74.712 15.7782 74.712 18.0518C74.712 18.448 74.695 18.7925 74.661 19.0164H67.937ZM67.903 17.3456H72.3459C72.1076 16.1571 71.3245 15.4165 70.167 15.4165C69.0095 15.4165 68.1583 16.1055 67.903 17.3456Z" fill="#F2F8F5"/>
<path d="M60.7876 13.4701C63.0346 13.4701 64.2091 15.1064 64.2091 17.1217V22.7541H61.6898V17.604C61.6898 16.5877 61.1621 15.7437 60.1067 15.7437C58.9832 15.7437 58.4555 16.6049 58.4385 17.3628V22.7541H55.9191V17.604C55.9191 16.5877 55.3744 15.7437 54.319 15.7437C53.2295 15.7437 52.6848 16.6049 52.6678 17.3628V22.7541H50.1484V13.694H52.5316V14.5552C53.0934 13.9179 53.9955 13.4701 55.119 13.4701C56.4809 13.4701 57.349 13.9524 57.8427 14.7964C58.3704 14.0213 59.3577 13.4701 60.7876 13.4701Z" fill="#F2F8F5"/>
<path d="M47.1043 12.3677C46.1851 12.3677 45.4531 11.6959 45.4531 10.7486C45.4531 9.81843 46.1851 9.12946 47.1043 9.12946C48.0235 9.12946 48.7385 9.81843 48.7385 10.7486C48.7385 11.6959 48.0235 12.3677 47.1043 12.3677ZM45.8276 22.7712V13.6939H48.347V22.7712H45.8276Z" fill="#F2F8F5"/>
<path d="M42.0941 14.5725C42.7069 13.9179 43.6091 13.4701 44.6645 13.4701V15.8643C43.1325 15.8643 42.2303 16.5705 42.2303 17.7762V22.7713H39.7109V13.694H42.0941V14.5725Z" fill="#F2F8F5"/>
<path d="M34.3579 10.8002C36.8942 10.8002 38.4944 12.2815 38.4944 14.5724C38.4944 16.846 36.8772 18.3445 34.3579 18.3445H32.0598V22.7712H29.5234V10.8002H34.3579ZM34.2217 16.1053C35.3452 16.1053 35.9239 15.468 35.9239 14.5724C35.9239 13.6767 35.3452 13.0394 34.2217 13.0394H32.0598V16.1053H34.2217Z" fill="#F2F8F5"/>
</svg>
